<svg width="1024" height="1024" viewBox="0 0 1024 1024" fill="none" xmlns="http://www.w3.org/2000/svg">
  <!-- Full-bleed warm OpenClaw-style tile -->
  <rect width="1024" height="1024" fill="#ff6b57"/>
  <circle cx="760" cy="220" r="420" fill="#e63946" fill-opacity="0.35"/>
  <circle cx="220" cy="860" r="380" fill="#ff9a5a" fill-opacity="0.25"/>

  <!-- Antennae -->
  <path d="M450 250C364 176 328 108 354 66" stroke="#ffe7dd" stroke-width="36" stroke-linecap="round"/>
  <path d="M574 250C660 176 696 108 670 66" stroke="#ffe7dd" stroke-width="36" stroke-linecap="round"/>

  <!-- Claws -->
  <circle cx="226" cy="430" r="134" fill="#7a1f28"/>
  <circle cx="798" cy="430" r="134" fill="#7a1f28"/>
  <circle cx="176" cy="390" r="52" fill="#ff8b63"/>
  <circle cx="848" cy="390" r="52" fill="#ff8b63"/>

  <!-- Arms -->
  <path d="M338 506C398 462 446 440 512 434" stroke="#7a1f28" stroke-width="58" stroke-linecap="round"/>
  <path d="M686 506C626 462 578 440 512 434" stroke="#7a1f28" stroke-width="58" stroke-linecap="round"/>

  <!-- Body -->
  <ellipse cx="512" cy="604" rx="232" ry="288" fill="#7a1f28"/>

  <!-- Face -->
  <circle cx="432" cy="494" r="26" fill="#ffe7dd"/>
  <circle cx="592" cy="494" r="26" fill="#ffe7dd"/>
  <circle cx="432" cy="494" r="12" fill="#2b0f14"/>
  <circle cx="592" cy="494" r="12" fill="#2b0f14"/>

  <!-- Shell lines -->
  <path d="M388 594C454 632 570 632 636 594" stroke="#ffb093" stroke-width="24" stroke-linecap="round"/>
  <path d="M382 686C452 722 572 722 642 686" stroke="#ffb093" stroke-width="24" stroke-linecap="round"/>
  <path d="M408 772C468 800 556 800 616 772" stroke="#ffb093" stroke-width="22" stroke-linecap="round"/>

  <!-- Tail -->
  <rect x="426" y="852" width="172" height="74" rx="36" fill="#7a1f28"/>
</svg>
